<?xml version="1.0" encoding="UTF-8" standalone="no"?>
<!-- Created with Inkscape (http://www.inkscape.org/) -->

<svg
   width="34.618553mm"
   height="19.221355mm"
   viewBox="0 0 34.618553 19.221355"
   version="1.1"
   id="svg1"
   xmlns:inkscape="http://www.inkscape.org/namespaces/inkscape"
   xmlns:sodipodi="http://sodipodi.sourceforge.net/DTD/sodipodi-0.dtd"
   xmlns="http://www.w3.org/2000/svg"
   xmlns:svg="http://www.w3.org/2000/svg">
  <sodipodi:namedview
     id="namedview1"
     pagecolor="#ffffff"
     bordercolor="#000000"
     borderopacity="0.25"
     inkscape:showpageshadow="2"
     inkscape:pageopacity="0.0"
     inkscape:pagecheckerboard="0"
     inkscape:deskcolor="#d1d1d1"
     inkscape:document-units="mm">
    <inkscape:page
       x="0"
       y="0"
       width="34.618553"
       height="19.221355"
       id="page2"
       margin="0"
       bleed="0" />
  </sodipodi:namedview>
  <defs
     id="defs1">
    <inkscape:path-effect
       effect="tiling"
       id="path-effect1"
       is_visible="true"
       lpeversion="1.3.1"
       unit="px"
       seed="1;1"
       lpesatellites=""
       num_rows="2"
       num_cols="1"
       gapx="0"
       gapy="11"
       offset="50"
       offset_type="false"
       scale="0"
       rotate="0"
       mirrorrowsx="false"
       mirrorrowsy="false"
       mirrorcolsx="false"
       mirrorcolsy="false"
       mirrortrans="false"
       shrink_interp="false"
       split_items="false"
       link_styles="false"
       interpolate_scalex="false"
       interpolate_scaley="true"
       interpolate_rotatex="false"
       interpolate_rotatey="true"
       random_scale="false"
       random_rotate="false"
       random_gap_y="false"
       random_gap_x="false"
       transformorigin="" />
  </defs>
  <g
     inkscape:label="Layer 1"
     inkscape:groupmode="layer"
     id="layer1"
     transform="translate(-58.240291,-34.073339)">
    <path
       d="m 89.560936,37.507918 c 0.373735,0 0.718404,0.10105 1.034008,0.303149 0.323908,0.202099 0.57722,0.470512 0.759935,0.805238 0.191025,0.328411 0.286537,0.675768 0.286537,1.042073 0,0.315779 -0.10797,0.565245 -0.323911,0.748398 -0.215935,0.176837 -0.531537,0.265255 -0.946805,0.265255 -0.332211,0 -0.726713,-0.06 -1.183504,-0.179994 -0.448488,-0.126312 -0.88867,-0.306307 -1.320547,-0.539984 -0.215938,0.221046 -0.473403,0.378936 -0.772394,0.47367 -0.298991,0.08842 -0.668578,0.132627 -1.108759,0.132627 l 0.236701,-0.738924 c 0.191022,0 0.348823,-0.01895 0.473403,-0.05684 0.124579,-0.04421 0.236701,-0.107363 0.336365,-0.189468 0.09966,-0.08842 0.20348,-0.208415 0.311449,-0.359989 l 0.18687,-0.255782 c 0.207633,-0.284201 0.394502,-0.524194 0.560608,-0.719978 0.166107,-0.195783 0.37374,-0.366304 0.622899,-0.511563 0.257463,-0.145259 0.539844,-0.217888 0.847145,-0.217888 z m 1.108756,2.311508 c 0.0083,-0.02526 0.01243,-0.06631 0.01243,-0.123154 0,-0.170521 -0.05398,-0.372621 -0.161952,-0.606298 -0.107967,-0.233677 -0.253311,-0.432618 -0.436032,-0.596823 -0.174407,-0.164205 -0.357122,-0.246308 -0.548147,-0.246308 -0.149496,0 -0.286534,0.04421 -0.411113,0.132627 -0.116277,0.0821 -0.224246,0.18631 -0.323907,0.312622 -0.09136,0.119997 -0.257465,0.347358 -0.498319,0.682084 0.348823,0.176837 0.68934,0.31578 1.021551,0.41683 0.332217,0.09473 0.602141,0.1421 0.809772,0.1421 0.232547,0 0.411111,-0.03789 0.535691,-0.11368 z m -4.447502,0 c 0.199328,0 0.332213,0.0221 0.398656,0.06631 0.07475,0.04421 0.112122,0.107363 0.112122,0.189468 0,0.119996 -0.05814,0.230519 -0.174413,0.331568 -0.107969,0.101049 -0.303143,0.151574 -0.585524,0.151574 h -0.784852 c -0.290686,0 -0.597983,-0.0221 -0.92189,-0.06631 -0.315601,-0.05053 -0.622898,-0.11684 -0.921889,-0.198941 -0.639509,0.176836 -1.386987,0.265254 -2.242434,0.265254 H 80.46661 l 0.249159,-0.738924 h 1.183506 c 0.149496,0 0.257465,-0.0032 0.323908,-0.0095 -0.224243,-0.145259 -0.398655,-0.303148 -0.523235,-0.473669 -0.124579,-0.176837 -0.186869,-0.366305 -0.186869,-0.568404 0,-0.27157 0.09136,-0.539983 0.274075,-0.805238 0.191022,-0.265255 0.440181,-0.483143 0.747478,-0.653664 0.307297,-0.170521 0.627051,-0.255781 0.959264,-0.255781 0.282381,0 0.552303,0.07263 0.809767,0.217888 0.257465,0.145259 0.465098,0.331569 0.622899,0.55893 0.157801,0.221045 0.236701,0.445249 0.236701,0.672611 0,0.517878 -0.228396,0.941023 -0.685188,1.269434 0.307297,0.03158 0.602135,0.04737 0.884516,0.04737 z m -3.899344,-1.174701 c 0,0.176837 0.09551,0.347358 0.286534,0.511564 0.191022,0.157889 0.456792,0.290517 0.79731,0.397882 0.290686,-0.113681 0.519082,-0.252624 0.685188,-0.416829 0.166106,-0.164206 0.249159,-0.341043 0.249159,-0.53051 0,-0.132627 -0.04983,-0.262097 -0.149496,-0.388409 -0.09966,-0.126312 -0.228395,-0.227362 -0.386196,-0.303149 -0.149495,-0.0821 -0.298991,-0.123154 -0.448487,-0.123154 -0.157801,0 -0.319754,0.04421 -0.485861,0.132628 -0.157801,0.0821 -0.290686,0.189467 -0.398655,0.322095 -0.09966,0.132627 -0.149496,0.265255 -0.149496,0.397882 z m 1.345461,-2.671496 -1.021553,-0.539983 0.635356,-0.719978 1.021553,0.53051 z m -2.965002,3.846197 c 0.199327,0 0.332212,0.0221 0.398655,0.06631 0.07475,0.04421 0.112121,0.107363 0.112121,0.189468 0,0.119996 -0.05398,0.230519 -0.161954,0.331568 -0.107969,0.101049 -0.303143,0.151574 -0.585524,0.151574 -0.448487,0 -0.79731,-0.08526 -1.046469,-0.255781 -0.132885,0.290517 -0.369587,0.565246 -0.710104,0.824185 -0.332213,0.265255 -0.755784,0.492617 -1.270713,0.682084 -0.514929,0.195783 -1.096301,0.337884 -1.744116,0.426303 l -0.523234,-0.549457 0.04983,-0.07579 c 1.121217,-0.164206 1.955901,-0.407356 2.504052,-0.729451 0.556456,-0.31578 0.901126,-0.682085 1.034011,-1.098914 -0.149495,-0.328411 -0.46925,-0.858921 -0.959263,-1.59153 l 0.722562,-0.58735 h 0.12458 c 0.191022,0.404198 0.394502,0.808396 0.61044,1.212594 l 0.12458,0.246309 c 0.116274,0.227361 0.22009,0.391566 0.311449,0.492616 0.09966,0.101049 0.22009,0.170521 0.361281,0.208415 0.149496,0.03789 0.365434,0.05684 0.647814,0.05684 z m -8.010457,0.786291 c -0.174411,0 -0.411113,-0.0095 -0.710104,-0.02842 -0.290686,-0.01895 -0.539845,-0.04737 -0.747478,-0.08526 l 0.137037,-0.691558 0.06229,-0.03789 c 0.174411,0.03158 0.398655,0.05684 0.67273,0.07579 0.28238,0.01263 0.514929,0.01895 0.697646,0.01895 0.448487,0 0.872057,-0.03158 1.270712,-0.09473 0.406961,-0.06947 0.668578,-0.15789 0.784852,-0.265255 C 74.785785,39.149987 74.574,38.780524 74.225177,38.388957 73.88466,37.991075 73.452784,37.602666 72.929549,37.22373 l 0.523234,-0.701031 h 0.08721 c 1.403597,1.11786 2.105396,2.02099 2.105396,2.70939 0,0.915761 -0.984179,1.373642 -2.952538,1.373642 z m -3.600355,0 -0.07475,-0.02842 v -6.309279 l 0.909432,-0.179994 0.06229,0.03789 -0.01246,6.337699 z m -2.205059,-3.230426 c 0.182717,0.322095 0.323907,0.628401 0.423571,0.918919 0.09966,0.290517 0.149496,0.533668 0.149496,0.729451 0,0.258939 -0.06229,0.495774 -0.18687,0.710504 -0.124579,0.208415 -0.319754,0.37262 -0.585525,0.492616 -0.614593,0.290518 -1.739962,0.435777 -3.376109,0.435777 h -0.847142 c -0.938501,0 -1.715047,-0.05684 -2.32964,-0.170521 -0.614593,-0.113681 -1.083844,-0.296834 -1.407751,-0.549457 -0.315601,-0.258939 -0.473402,-0.599981 -0.473402,-1.023126 0,-0.195783 0.01661,-0.388409 0.04983,-0.577877 0.04153,-0.195784 0.09136,-0.356832 0.149496,-0.483144 l 0.73502,-0.208414 0.09966,0.03789 c -0.08305,0.31578 -0.12458,0.603139 -0.12458,0.862078 0,0.366305 0.132885,0.650507 0.398655,0.852606 0.26577,0.195783 0.651967,0.331569 1.158591,0.407356 0.514929,0.07579 1.183507,0.113681 2.005734,0.113681 h 0.872057 c 0.622899,0 1.204271,-0.02526 1.744116,-0.07579 0.54815,-0.05684 0.946805,-0.129469 1.195964,-0.217887 0.01661,-0.10105 0.02492,-0.17368 0.02492,-0.217889 0,-0.195783 -0.04983,-0.40104 -0.149496,-0.61577 -0.09136,-0.221046 -0.257465,-0.533668 -0.498319,-0.937866 l 0.8596,-0.483143 z m -4.5347,-0.407356 -1.009096,-0.539984 0.61044,-0.719977 1.009096,0.53051 z m 1.731657,0 -1.009095,-0.539984 0.635356,-0.719977 1.009096,0.53051 z m 42.170219,11.597513 c 0.37374,0 0.71841,0.101049 1.03401,0.303149 0.32391,0.202099 0.57722,0.470512 0.75994,0.805238 0.19102,0.32841 0.28653,0.675768 0.28653,1.042073 0,0.315779 -0.10797,0.565245 -0.32391,0.748398 -0.21593,0.176836 -0.53154,0.265255 -0.9468,0.265255 -0.33221,0 -0.72672,-0.06 -1.18351,-0.179994 -0.44848,-0.126312 -0.88867,-0.306307 -1.32054,-0.539984 -0.21594,0.221046 -0.47341,0.378936 -0.7724,0.47367 -0.29899,0.08842 -0.66858,0.132627 -1.10876,0.132627 l 0.2367,-0.738924 c 0.19103,0 0.34883,-0.01895 0.47341,-0.05684 0.12458,-0.04421 0.2367,-0.107363 0.33636,-0.189468 0.0997,-0.08842 0.20348,-0.208415 0.31145,-0.359989 l 0.18687,-0.255782 c 0.20763,-0.284202 0.3945,-0.524194 0.56061,-0.719978 0.16611,-0.195784 0.37374,-0.366305 0.6229,-0.511563 0.25746,-0.145259 0.53984,-0.217888 0.84714,-0.217888 z m 1.10876,2.311508 c 0.008,-0.02526 0.0124,-0.06631 0.0124,-0.123154 0,-0.170522 -0.054,-0.372621 -0.16195,-0.606298 -0.10797,-0.233677 -0.25331,-0.432618 -0.43604,-0.596823 -0.1744,-0.164206 -0.35712,-0.246308 -0.54814,-0.246308 -0.1495,0 -0.28654,0.04421 -0.41112,0.132627 -0.11627,0.0821 -0.22424,0.18631 -0.3239,0.312622 -0.0914,0.119996 -0.25747,0.347358 -0.49832,0.682084 0.34882,0.176836 0.68934,0.31578 1.02155,0.41683 0.33222,0.09473 0.60214,0.1421 0.80977,0.1421 0.23255,0 0.41111,-0.03789 0.53569,-0.11368 z m -4.4475,0 c 0.19932,0 0.33221,0.0221 0.39865,0.06631 0.0747,0.04421 0.11212,0.107362 0.11212,0.189468 10e-6,0.119996 -0.0581,0.230518 -0.17441,0.331568 -0.10797,0.101049 -0.30314,0.151574 -0.58552,0.151574 h -0.78485 c -0.29069,0 -0.59799,-0.0221 -0.92189,-0.06631 -0.31561,-0.05053 -0.6229,-0.116841 -0.92189,-0.198941 -0.639512,0.176836 -1.38699,0.265254 -2.242437,0.265254 h -0.635356 l 0.249159,-0.738924 h 1.183506 c 0.149496,0 0.257465,-0.0032 0.323908,-0.0095 -0.224243,-0.145259 -0.398655,-0.303149 -0.523235,-0.473669 -0.124579,-0.176837 -0.186869,-0.366305 -0.186869,-0.568404 0,-0.27157 0.09136,-0.539983 0.274075,-0.805238 0.191022,-0.265255 0.440181,-0.483143 0.747478,-0.653664 0.307297,-0.170521 0.627051,-0.255781 0.959261,-0.255781 0.28238,0 0.55231,0.07263 0.80977,0.217888 0.25746,0.145258 0.4651,0.331568 0.6229,0.55893 0.1578,0.221045 0.2367,0.445249 0.2367,0.672611 0,0.517878 -0.2284,0.941022 -0.68519,1.269434 0.3073,0.03158 0.60214,0.04737 0.88452,0.04737 z m -3.899347,-1.174701 c 0,0.176836 0.09551,0.347358 0.286534,0.511564 0.191022,0.157889 0.456792,0.290516 0.797313,0.397882 0.29068,-0.113681 0.51908,-0.252624 0.68518,-0.416829 0.16611,-0.164206 0.24916,-0.341043 0.24916,-0.53051 0,-0.132628 -0.0498,-0.262097 -0.14949,-0.388409 -0.0997,-0.126312 -0.2284,-0.227362 -0.3862,-0.303149 -0.14949,-0.0821 -0.29899,-0.123154 -0.44849,-0.123154 -0.157796,0 -0.319749,0.04421 -0.485856,0.132628 -0.157801,0.0821 -0.290686,0.189467 -0.398655,0.322095 -0.09966,0.132627 -0.149496,0.265254 -0.149496,0.397882 z m 1.345457,-2.671496 -1.021549,-0.539983 0.635356,-0.719978 1.021553,0.53051 z m -2.964998,3.846197 c 0.199327,0 0.332212,0.0221 0.398655,0.06631 0.07475,0.04421 0.112121,0.107362 0.112121,0.189468 0,0.119996 -0.05398,0.230518 -0.161954,0.331568 -0.107969,0.101049 -0.303143,0.151574 -0.585524,0.151574 -0.448487,0 -0.79731,-0.08526 -1.046469,-0.255781 -0.132885,0.290517 -0.369587,0.565245 -0.710104,0.824185 -0.332213,0.265255 -0.755784,0.492616 -1.270713,0.682084 -0.514929,0.195783 -1.096301,0.337884 -1.744116,0.426303 l -0.523234,-0.549457 0.04983,-0.07579 c 1.121217,-0.164206 1.955901,-0.407357 2.504052,-0.729451 0.556456,-0.31578 0.901126,-0.682085 1.034011,-1.098914 -0.149495,-0.328411 -0.46925,-0.858921 -0.959263,-1.59153 l 0.722562,-0.58735 h 0.12458 c 0.191022,0.404198 0.394502,0.808396 0.61044,1.212594 l 0.12458,0.246309 c 0.116274,0.22736 0.22009,0.391566 0.311449,0.492616 0.09966,0.101049 0.22009,0.170521 0.361281,0.208415 0.149496,0.03789 0.365434,0.05684 0.647814,0.05684 z m -8.010457,0.786291 c -0.174411,0 -0.411113,-0.0095 -0.710104,-0.02842 -0.290686,-0.01895 -0.539845,-0.04737 -0.747478,-0.08526 l 0.137037,-0.691558 0.06229,-0.03789 c 0.174411,0.03158 0.398655,0.05684 0.67273,0.07579 0.28238,0.01263 0.514929,0.01895 0.697646,0.01895 0.448487,0 0.872057,-0.03158 1.270712,-0.09473 0.406961,-0.06947 0.668578,-0.15789 0.784852,-0.265255 -0.07475,-0.347358 -0.286533,-0.71682 -0.635356,-1.108387 -0.340517,-0.397882 -0.772393,-0.786291 -1.295628,-1.165227 l 0.523234,-0.701031 h 0.08721 c 1.403597,1.11786 2.105396,2.02099 2.105396,2.70939 0,0.915761 -0.984179,1.373642 -2.952538,1.373642 z m -3.600355,0 -0.07475,-0.02842 v -6.309279 l 0.909432,-0.179994 0.06229,0.03789 -0.01246,6.337699 z m -2.205059,-3.230426 c 0.182717,0.322094 0.323907,0.628401 0.423571,0.918919 0.09966,0.290517 0.149496,0.533667 0.149496,0.729451 0,0.258939 -0.06229,0.495774 -0.18687,0.710504 -0.124579,0.208414 -0.319754,0.37262 -0.585525,0.492616 -0.614593,0.290518 -1.739962,0.435777 -3.376109,0.435777 h -0.847142 c -0.938501,0 -1.715047,-0.05684 -2.32964,-0.170521 -0.614593,-0.113682 -1.083844,-0.296834 -1.407751,-0.549457 -0.315601,-0.25894 -0.473402,-0.599982 -0.473402,-1.023126 0,-0.195784 0.01661,-0.388409 0.04983,-0.577877 0.04153,-0.195784 0.09136,-0.356832 0.149496,-0.483144 l 0.73502,-0.208414 0.09966,0.03789 c -0.08305,0.31578 -0.12458,0.603139 -0.12458,0.862078 0,0.366304 0.132885,0.650506 0.398655,0.852606 0.26577,0.195783 0.651967,0.331568 1.158591,0.407356 0.514929,0.07579 1.183507,0.113681 2.005734,0.113681 h 0.872057 c 0.622899,0 1.204271,-0.02526 1.744116,-0.07579 0.54815,-0.05684 0.946805,-0.129469 1.195964,-0.217887 0.01661,-0.10105 0.02492,-0.17368 0.02492,-0.217889 0,-0.195784 -0.04983,-0.40104 -0.149496,-0.61577 -0.09136,-0.221046 -0.257465,-0.533668 -0.498319,-0.937866 l 0.8596,-0.483143 z m -4.5347,-0.407356 -1.009096,-0.539984 0.61044,-0.719977 1.009096,0.53051 z m 1.731657,0 -1.009095,-0.539984 0.635356,-0.719977 1.009096,0.53051 z"
       id="text1"
       style="font-size:16.9333px;line-height:0;font-family:Dubai;-inkscape-font-specification:Dubai;fill:#00d0ff;fill-opacity:1;stroke:none;stroke-width:0.169745"
       aria-label="مفردات"
       inkscape:path-effect="#path-effect1"
       inkscape:original-d="m 89.560936,37.507918 q 0.560602,0 1.034008,0.303149 0.485862,0.303149 0.759935,0.805238 0.286537,0.492616 0.286537,1.042073 0,0.473669 -0.323911,0.748398 -0.323903,0.265255 -0.946805,0.265255 -0.498317,0 -1.183504,-0.179994 -0.672732,-0.189468 -1.320547,-0.539984 -0.323907,0.331569 -0.772394,0.47367 -0.448487,0.132627 -1.108759,0.132627 l 0.236701,-0.738924 q 0.286533,0 0.473403,-0.05684 0.186869,-0.06631 0.336365,-0.189468 0.149496,-0.132628 0.311449,-0.359989 l 0.18687,-0.255782 q 0.311449,-0.426302 0.560608,-0.719978 0.24916,-0.293675 0.622899,-0.511563 0.386194,-0.217888 0.847145,-0.217888 z m 1.108756,2.311508 q 0.01243,-0.03789 0.01243,-0.123154 0,-0.255782 -0.161952,-0.606298 -0.161951,-0.350515 -0.436032,-0.596823 -0.26161,-0.246308 -0.548147,-0.246308 -0.224244,0 -0.411113,0.132627 -0.174415,0.123154 -0.323907,0.312622 -0.137038,0.179995 -0.498319,0.682084 0.523234,0.265255 1.021551,0.41683 0.498325,0.1421 0.809772,0.1421 0.348821,0 0.535691,-0.11368 z m -4.447502,0 q 0.298992,0 0.398656,0.06631 0.112122,0.06631 0.112122,0.189468 0,0.179994 -0.174413,0.331568 -0.161953,0.151574 -0.585524,0.151574 h -0.784852 q -0.436029,0 -0.92189,-0.06631 -0.473402,-0.07579 -0.921889,-0.198941 -0.959264,0.265254 -2.242434,0.265254 H 80.46661 l 0.249159,-0.738924 h 1.183506 q 0.224244,0 0.323908,-0.0095 -0.336365,-0.217888 -0.523235,-0.473669 -0.186869,-0.265255 -0.186869,-0.568404 0,-0.407355 0.274075,-0.805238 0.286533,-0.397882 0.747478,-0.653664 0.460945,-0.255781 0.959264,-0.255781 0.423571,0 0.809767,0.217888 0.386197,0.217888 0.622899,0.55893 0.236701,0.331568 0.236701,0.672611 0,0.776817 -0.685188,1.269434 0.460945,0.04737 0.884516,0.04737 z m -3.899344,-1.174701 q 0,0.265255 0.286534,0.511564 0.286533,0.236834 0.79731,0.397882 0.436029,-0.170521 0.685188,-0.416829 0.249159,-0.246309 0.249159,-0.53051 0,-0.198941 -0.149496,-0.388409 -0.149495,-0.189468 -0.386196,-0.303149 -0.224243,-0.123154 -0.448487,-0.123154 -0.236701,0 -0.485861,0.132628 -0.236701,0.123153 -0.398655,0.322095 -0.149496,0.198941 -0.149496,0.397882 z m 1.345461,-2.671496 -1.021553,-0.539983 0.635356,-0.719978 1.021553,0.53051 z m -2.965002,3.846197 q 0.298991,0 0.398655,0.06631 0.112121,0.06631 0.112121,0.189468 0,0.179994 -0.161954,0.331568 -0.161953,0.151574 -0.585524,0.151574 -0.67273,0 -1.046469,-0.255781 -0.199328,0.435776 -0.710104,0.824185 -0.498319,0.397883 -1.270713,0.682084 -0.772394,0.293675 -1.744116,0.426303 l -0.523234,-0.549457 0.04983,-0.07579 q 1.681826,-0.246309 2.504052,-0.729451 0.834684,-0.47367 1.034011,-1.098914 -0.224243,-0.492616 -0.959263,-1.59153 l 0.722562,-0.58735 h 0.12458 q 0.286533,0.606297 0.61044,1.212594 l 0.12458,0.246309 q 0.174411,0.341041 0.311449,0.492616 0.149495,0.151574 0.361281,0.208415 0.224244,0.05684 0.647814,0.05684 z m -8.010457,0.786291 q -0.261617,0 -0.710104,-0.02842 -0.436029,-0.02842 -0.747478,-0.08526 l 0.137037,-0.691558 0.06229,-0.03789 q 0.261617,0.04737 0.67273,0.07579 0.42357,0.01895 0.697646,0.01895 0.67273,0 1.270712,-0.09473 0.610441,-0.104207 0.784852,-0.265255 -0.112122,-0.521036 -0.635356,-1.108387 -0.510776,-0.596823 -1.295628,-1.165227 l 0.523234,-0.701031 h 0.08721 q 2.105396,1.67679 2.105396,2.70939 0,1.373642 -2.952538,1.373642 z m -3.600355,0 -0.07475,-0.02842 v -6.309279 l 0.909432,-0.179994 0.06229,0.03789 -0.01246,6.337699 z m -2.205059,-3.230426 q 0.274075,0.483142 0.423571,0.918919 0.149496,0.435776 0.149496,0.729451 0,0.388409 -0.18687,0.710504 -0.186869,0.312622 -0.585525,0.492616 -0.921889,0.435777 -3.376109,0.435777 h -0.847142 q -1.407751,0 -2.32964,-0.170521 -0.92189,-0.170522 -1.407751,-0.549457 -0.473402,-0.388409 -0.473402,-1.023126 0,-0.293675 0.04983,-0.577877 0.06229,-0.293676 0.149496,-0.483144 l 0.73502,-0.208414 0.09966,0.03789 q -0.12458,0.47367 -0.12458,0.862078 0,0.549457 0.398655,0.852606 0.398655,0.293675 1.158591,0.407356 0.772394,0.113681 2.005734,0.113681 h 0.872057 q 0.934348,0 1.744116,-0.07579 0.822225,-0.08526 1.195964,-0.217887 0.02492,-0.151575 0.02492,-0.217889 0,-0.293675 -0.149496,-0.61577 -0.137038,-0.331569 -0.498319,-0.937866 l 0.8596,-0.483143 z m -4.5347,-0.407356 -1.009096,-0.539984 0.61044,-0.719977 1.009096,0.53051 z m 1.731657,0 -1.009095,-0.539984 0.635356,-0.719977 1.009096,0.53051 z"
       transform="matrix(0.69125088,0,0,1.0008702,17.972115,-0.04435124)" />
  </g>
</svg>
